<?xml version="1.0" encoding="UTF-8"?>
<svg id="Camada_1" data-name="Camada 1" xmlns="http://www.w3.org/2000/svg" viewBox="0 0 1080 1080">
  <defs>
    <style>
      .cls-1 {
        fill: #ff6200;
      }

      .cls-1, .cls-2 {
        stroke-width: 0px;
      }

      .cls-2 {
        fill: #fff;
      }
    </style>
  </defs>
  <path class="cls-1" d="m215,540c0-94.96,9.36-184.57,22.74-240.74,6.69-32.1,25.41-53.5,61.52-61.52,58.85-14.71,145.78-22.74,240.74-22.74s181.89,8.02,240.74,22.74c36.11,8.02,54.84,29.42,61.52,61.52,13.37,56.17,22.74,145.78,22.74,240.74s-9.36,184.57-22.74,240.74c-6.69,32.1-25.41,53.5-61.52,61.52-58.85,14.71-145.78,22.74-240.74,22.74s-181.89-8.02-240.74-22.74c-36.11-8.02-54.84-29.42-61.52-61.52-13.37-56.17-22.74-145.78-22.74-240.74Z"/>
  <path class="cls-2" d="m310.68,545.33c16.63,0,28.24-11.29,28.24-27.29s-11.6-27.3-28.24-27.3-28.23,11.3-28.23,27.3,11.6,27.29,28.23,27.29Zm23.84,179.76v-162.81h-47.68v162.81h47.68Zm42.03-125.8v69.64c0,39.53,20.71,59.29,57.41,59.29,13.18,0,24.16-1.57,29.49-3.14v-36.39c-3.45.94-9.73,1.88-16.94,1.88-15.37,0-22.27-7.53-22.27-24.78v-66.5h41.41v-37.01h-41.41v-49.25l-47.69,8.47v40.79h-23.84v37.01h23.84Zm159.99,129.88c19.14,0,32.94-7.85,42.67-21.02l.63,16.94h44.55v-95.68c0-46.43-26.04-71.21-72.47-71.21-23.84,0-43.6,3.76-62.74,10.98v38.27c18.82-7.22,37.64-11.61,55.21-11.61,21.96,0,34.2,10.04,34.2,27.61-3.77-.31-10.04-.63-16-.63-50.19,0-81.88,20.7-81.88,56.15,0,30.74,21.64,50.19,55.84,50.19Zm30.43-76.86c3.77,0,9.73.32,11.93.63v12.86c0,17.26-11.61,29.18-28.24,29.18-14.74,0-23.84-6.59-23.84-19.76,0-15.06,14.43-22.9,40.15-22.9Zm135.83,76.86c19.76,0,33.26-7.22,43.92-21.64l.63,17.56h45.8v-162.81h-47.68v95.99c0,19.76-9.73,32.31-25.72,32.31s-24.16-10.67-24.16-30.43v-97.87h-47.68v105.72c0,37.33,21.33,61.17,54.89,61.17Zm59.92-188.85v-41.41l-79.36,14.12v27.29h79.36Z"/>
</svg>